P1
# CREATOR: GIMP PNM Filter Version 1.1
10 10
0000000000000000000000000000001100000000111100000011111000001111110000
111111100011111110001111111100